<?xml version="1.0" encoding="utf-8"?>
<!-- Generator: Adobe Illustrator 25.3.1, SVG Export Plug-In . SVG Version: 6.00 Build 0)  -->
<svg version="1.1" id="Layer_1" xmlns="http://www.w3.org/2000/svg" xmlns:xlink="http://www.w3.org/1999/xlink" x="0px" y="0px"
	 viewBox="0 0 271.5 279.7" style="enable-background:new 0 0 271.5 279.7;" xml:space="preserve">
<style type="text/css">
	.st0{fill:#006666;}
	.st1{fill:#FFFFFF;}
</style>
<path class="st0" d="M222.2,245.8L138,276.5c-17.3,6.3-36.6,2.9-50.8-8.9l-68.7-57.5C4.3,198.3-2.4,179.8,0.8,161.7l15.5-88.3
	C19.4,55.3,32,40.2,49.3,33.9l84.2-30.8c17.3-6.3,36.6-2.9,50.8,8.9L253,69.6c14.1,11.8,20.9,30.3,17.7,48.4l-15.5,88.3
	C252.1,224.4,239.5,239.5,222.2,245.8z"/>
<path class="st1" d="M95.7,77.8c0,71.3-40.3,129-90,129"/>
<path class="st1" d="M76.7,44.8c78.5,59.8,116.5,141.6,85,183"/>
<path class="st1" d="M55.7,139.8c10.9,21.1,51.1,22,90,2"/>
<path class="st1" d="M184.2,198.4"/>
<path class="st1" d="M197.5,49.3"/>
<path class="st1" d="M198.7,19.8c27.5,127.2,18.9,236.8-19.3,245.1"/>
<path class="st1" d="M87.6,227.3c2.6,26.4,43.9,43.8,92.3,39"/>
</svg>
